<svg width="18" height="12" viewBox="0 0 18 12" fill="none" xmlns="http://www.w3.org/2000/svg">
<g id="Group">
<path id="Vector" d="M8.901 11.2347C8.67458 11.2035 8.36237 11.089 8.26955 11.0046C8.24143 10.9785 5.73814 7.87049 3.34455 4.89206C1.15628 2.16777 0.0494876 0.776501 0.0213608 0.718239C-0.0320802 0.60774 0.0171417 0.426925 0.142306 0.2662C0.215436 0.173784 0.365914 0.0582627 0.457327 0.0251132L0.524831 0H9.00507H17.4853L17.55 0.0210951C17.7384 0.083376 17.9213 0.289304 17.9789 0.505278C18.0267 0.68308 18.0042 0.742347 17.7947 1.00654C17.1267 1.84633 15.8005 3.49878 14.3112 5.34912C11.3213 9.06186 11.1877 9.22861 10.4817 10.1106C10.102 10.5827 9.77152 10.9865 9.7448 11.0076C9.68293 11.0559 9.49588 11.1453 9.37072 11.1854C9.19774 11.2407 9.05288 11.2558 8.901 11.2347Z" fill="black"/>
</g>
</svg>
