<svg width="26" height="30" viewBox="0 0 26 30" fill="none" xmlns="http://www.w3.org/2000/svg">
<path id="Vector" d="M19.8095 6.69938L18.2404 4.81224L18.8004 7.22487C18.8062 7.2428 19.1562 8.79547 18.8004 10.1929C18.1413 7.82206 16.3214 3.46259 11.5152 0.906647L10.4303 0.333333L10.6694 1.55158C10.6811 1.61132 11.7252 7.32642 6.75555 12.6175C6.66224 11.5306 6.27729 10.1272 4.97654 9.27325L4.13077 8.71784L4.07829 9.74502C4.07829 9.77487 3.90915 12.8384 2.53841 15.0361C1.54682 16.6187 0.986889 18.2012 0.864386 19.7419C0.636896 22.5905 1.55266 26.5917 7.19885 29.4403L7.32136 29.5H9.72449L9.60199 29.4343C6.06728 27.589 6.02645 24.3701 6.10228 23.4266C6.16646 22.5368 6.47559 21.6291 7.02388 20.7213C7.71215 19.5807 7.79965 17.9504 7.80549 17.9384L7.85797 16.8874L8.70958 17.4726C9.33954 17.9026 9.70697 18.5714 9.92282 19.1447C12.1568 16.4574 11.3518 13.6864 11.311 13.5611L10.8911 12.1576L12.1451 12.8504C14.4083 14.1045 15.464 16.1051 15.9423 17.5025C16.0881 17.0486 16.1698 16.6246 16.1989 16.4096L16.3681 15.0361L17.2255 16.1051C19.5995 19.0671 20.5036 21.8201 19.9028 24.2985C19.0512 27.8219 15.4932 29.3925 15.3415 29.4582L15.2365 29.5H17.4822L17.5872 29.4642C17.8322 29.3626 23.63 27.0097 25.0357 21.3305C26.0915 17.0486 24.3358 12.1278 19.8095 6.69938Z" fill="#12182B"/>
</svg>
